<svg width="98" height="24" viewBox="0 0 98 24" fill="none" xmlns="http://www.w3.org/2000/svg">
<g clip-path="url(#clip0_703_955)">
<g clip-path="url(#clip1_703_955)">
<path d="M21.6562 12C21.6562 5.57812 16.8867 0.375 11 0.375C5.11328 0.375 0.34375 5.57812 0.34375 12C0.34375 17.8022 4.24059 22.6116 9.33496 23.4844V15.3605H6.62793V12H9.33496V9.43875C9.33496 6.52547 10.9248 4.91625 13.3598 4.91625C14.526 4.91625 15.7455 5.14313 15.7455 5.14313V8.0025H14.4014C13.078 8.0025 12.665 8.89875 12.665 9.81797V12H15.6204L15.1478 15.3605H12.665V23.4844C17.7594 22.6116 21.6562 17.8022 21.6562 12Z" fill="white"/>
</g>
<path d="M32.624 13.088V18H31.152V6.544H37.84V7.952H32.624V11.712H37.328V13.088H32.624ZM40.0149 15.6C40.0149 15.984 40.1749 16.304 40.4949 16.56C40.8255 16.816 41.2095 16.944 41.6469 16.944C42.2655 16.944 42.8149 16.7147 43.2949 16.256C43.7855 15.7973 44.0309 15.2587 44.0309 14.64C43.5722 14.2773 42.9322 14.096 42.1109 14.096C41.5135 14.096 41.0122 14.24 40.6069 14.528C40.2122 14.816 40.0149 15.1733 40.0149 15.6ZM41.9189 9.904C43.0069 9.904 43.8655 10.1973 44.4949 10.784C45.1242 11.36 45.4389 12.1547 45.4389 13.168V18H44.0309V16.912H43.9669C43.3589 17.808 42.5482 18.256 41.5349 18.256C40.6709 18.256 39.9455 18 39.3589 17.488C38.7829 16.976 38.4949 16.336 38.4949 15.568C38.4949 14.7573 38.7989 14.112 39.4069 13.632C40.0255 13.152 40.8469 12.912 41.8709 12.912C42.7455 12.912 43.4655 13.072 44.0309 13.392V13.056C44.0309 12.544 43.8282 12.112 43.4229 11.76C43.0175 11.3973 42.5429 11.216 41.9989 11.216C41.1775 11.216 40.5269 11.5627 40.0469 12.256L38.7509 11.44C39.4655 10.416 40.5215 9.904 41.9189 9.904ZM50.605 18.256C49.4423 18.256 48.477 17.8613 47.709 17.072C46.9517 16.2613 46.573 15.264 46.573 14.08C46.573 12.8747 46.9517 11.8773 47.709 11.088C48.477 10.2987 49.4423 9.904 50.605 9.904C51.405 9.904 52.1037 10.1067 52.701 10.512C53.2983 10.9067 53.7463 11.456 54.045 12.16L52.701 12.72C52.285 11.7387 51.5543 11.248 50.509 11.248C49.837 11.248 49.2557 11.52 48.765 12.064C48.285 12.608 48.045 13.28 48.045 14.08C48.045 14.88 48.285 15.552 48.765 16.096C49.2557 16.64 49.837 16.912 50.509 16.912C51.5863 16.912 52.3437 16.4213 52.781 15.44L54.093 16C53.805 16.704 53.3517 17.2587 52.733 17.664C52.125 18.0587 51.4157 18.256 50.605 18.256ZM58.8223 18.256C57.6703 18.256 56.7209 17.8613 55.9743 17.072C55.2276 16.2827 54.8543 15.2853 54.8543 14.08C54.8543 12.8853 55.2169 11.8933 55.9423 11.104C56.6676 10.304 57.5956 9.904 58.7263 9.904C59.8889 9.904 60.8116 10.2827 61.4943 11.04C62.1876 11.7867 62.5343 12.8373 62.5343 14.192L62.5183 14.352H56.3583C56.3796 15.12 56.6356 15.7387 57.1263 16.208C57.6169 16.6773 58.2036 16.912 58.8863 16.912C59.8249 16.912 60.5609 16.4427 61.0943 15.504L62.4062 16.144C62.0543 16.8053 61.5636 17.3227 60.9343 17.696C60.3156 18.0693 59.6116 18.256 58.8223 18.256ZM56.4703 13.136H60.9663C60.9236 12.592 60.6996 12.144 60.2943 11.792C59.8996 11.4293 59.3663 11.248 58.6943 11.248C58.1396 11.248 57.6596 11.4187 57.2543 11.76C56.8596 12.1013 56.5983 12.56 56.4703 13.136ZM68.0244 18.256C67.4484 18.256 66.9204 18.1333 66.4404 17.888C65.971 17.6427 65.6084 17.3173 65.3524 16.912H65.2884V18H63.8804V6.544H65.3524V10.16L65.2884 11.248H65.3524C65.6084 10.8427 65.971 10.5173 66.4404 10.272C66.9204 10.0267 67.4484 9.904 68.0244 9.904C69.059 9.904 69.9337 10.3093 70.6484 11.12C71.3844 11.9413 71.7524 12.928 71.7524 14.08C71.7524 15.2427 71.3844 16.2293 70.6484 17.04C69.9337 17.8507 69.059 18.256 68.0244 18.256ZM67.7844 16.912C68.4884 16.912 69.0804 16.6453 69.5604 16.112C70.0404 15.5893 70.2804 14.912 70.2804 14.08C70.2804 13.2587 70.0404 12.5813 69.5604 12.048C69.0804 11.5147 68.4884 11.248 67.7844 11.248C67.0697 11.248 66.4724 11.5147 65.9924 12.048C65.523 12.5813 65.2884 13.2587 65.2884 14.08C65.2884 14.912 65.523 15.5947 65.9924 16.128C66.4724 16.6507 67.0697 16.912 67.7844 16.912ZM72.6511 14.08C72.6511 12.8747 73.0298 11.8773 73.7871 11.088C74.5551 10.2987 75.5205 9.904 76.6831 9.904C77.8458 9.904 78.8058 10.2987 79.5631 11.088C80.3311 11.8773 80.7151 12.8747 80.7151 14.08C80.7151 15.296 80.3311 16.2933 79.5631 17.072C78.8058 17.8613 77.8458 18.256 76.6831 18.256C75.5205 18.256 74.5551 17.8613 73.7871 17.072C73.0298 16.2827 72.6511 15.2853 72.6511 14.08ZM74.1231 14.08C74.1231 14.9227 74.3685 15.6053 74.8591 16.128C75.3498 16.6507 75.9578 16.912 76.6831 16.912C77.4085 16.912 78.0165 16.6507 78.5071 16.128C78.9978 15.6053 79.2431 14.9227 79.2431 14.08C79.2431 13.248 78.9978 12.5707 78.5071 12.048C78.0058 11.5147 77.3978 11.248 76.6831 11.248C75.9685 11.248 75.3605 11.5147 74.8591 12.048C74.3685 12.5707 74.1231 13.248 74.1231 14.08ZM81.6043 14.08C81.6043 12.8747 81.9829 11.8773 82.7403 11.088C83.5083 10.2987 84.4736 9.904 85.6363 9.904C86.7989 9.904 87.7589 10.2987 88.5163 11.088C89.2843 11.8773 89.6683 12.8747 89.6683 14.08C89.6683 15.296 89.2843 16.2933 88.5163 17.072C87.7589 17.8613 86.7989 18.256 85.6363 18.256C84.4736 18.256 83.5083 17.8613 82.7403 17.072C81.9829 16.2827 81.6043 15.2853 81.6043 14.08ZM83.0763 14.08C83.0763 14.9227 83.3216 15.6053 83.8123 16.128C84.3029 16.6507 84.9109 16.912 85.6363 16.912C86.3616 16.912 86.9696 16.6507 87.4603 16.128C87.9509 15.6053 88.1963 14.9227 88.1963 14.08C88.1963 13.248 87.9509 12.5707 87.4603 12.048C86.9589 11.5147 86.3509 11.248 85.6363 11.248C84.9216 11.248 84.3136 11.5147 83.8123 12.048C83.3216 12.5707 83.0763 13.248 83.0763 14.08ZM97.8233 18H96.0473L93.5993 14.304L92.3993 15.488V18H90.9273V6.544H92.3993V13.6L95.7913 10.16H97.6793V10.224L94.6233 13.264L97.8233 17.936V18Z" fill="white"/>
</g>
<defs>
<clipPath id="clip0_703_955">
<rect width="98" height="24" fill="white"/>
</clipPath>
<clipPath id="clip1_703_955">
<rect width="22" height="24" fill="white"/>
</clipPath>
</defs>
</svg>
