<svg width="100" height="24" viewBox="0 0 100 24" fill="none" xmlns="http://www.w3.org/2000/svg">
<g clip-path="url(#clip0_703_959)">
<g clip-path="url(#clip1_703_959)">
<path d="M11.0049 6.6094C7.88169 6.6094 5.36249 9.01409 5.36249 11.9953C5.36249 14.9766 7.88169 17.3813 11.0049 17.3813C14.1281 17.3813 16.6473 14.9766 16.6473 11.9953C16.6473 9.01409 14.1281 6.6094 11.0049 6.6094ZM11.0049 15.4969C8.9866 15.4969 7.3366 13.9266 7.3366 11.9953C7.3366 10.0641 8.98169 8.49377 11.0049 8.49377C13.0281 8.49377 14.6732 10.0641 14.6732 11.9953C14.6732 13.9266 13.0232 15.4969 11.0049 15.4969ZM18.1942 6.38909C18.1942 7.08752 17.6049 7.64534 16.8781 7.64534C16.1464 7.64534 15.562 7.08284 15.562 6.38909C15.562 5.69534 16.1513 5.13284 16.8781 5.13284C17.6049 5.13284 18.1942 5.69534 18.1942 6.38909ZM21.9312 7.66409C21.8477 5.98127 21.4451 4.49065 20.1536 3.26252C18.8669 2.0344 17.3053 1.65002 15.5424 1.56565C13.7254 1.46721 8.27946 1.46721 6.46249 1.56565C4.70446 1.64534 3.14285 2.02971 1.85134 3.25784C0.559819 4.48596 0.162051 5.97659 0.0736587 7.6594C-0.0294662 9.39377 -0.0294662 14.5922 0.0736587 16.3266C0.157141 18.0094 0.559819 19.5 1.85134 20.7281C3.14285 21.9563 4.69955 22.3406 6.46249 22.425C8.27946 22.5235 13.7254 22.5235 15.5424 22.425C17.3053 22.3453 18.8669 21.961 20.1536 20.7281C21.4402 19.5 21.8428 18.0094 21.9312 16.3266C22.0344 14.5922 22.0344 9.39846 21.9312 7.66409ZM19.5839 18.1875C19.2009 19.1063 18.4594 19.8141 17.4919 20.1844C16.0433 20.7328 12.6058 20.6063 11.0049 20.6063C9.40401 20.6063 5.9616 20.7281 4.51785 20.1844C3.55535 19.8188 2.81384 19.111 2.42589 18.1875C1.85134 16.8047 1.98393 13.5235 1.98393 11.9953C1.98393 10.4672 1.85625 7.18127 2.42589 5.80315C2.80892 4.8844 3.55044 4.17659 4.51785 3.80627C5.96651 3.25784 9.40401 3.3844 11.0049 3.3844C12.6058 3.3844 16.0482 3.26252 17.4919 3.80627C18.4544 4.1719 19.196 4.87971 19.5839 5.80315C20.1585 7.18596 20.0259 10.4672 20.0259 11.9953C20.0259 13.5235 20.1585 16.8094 19.5839 18.1875Z" fill="white"/>
</g>
<path d="M32.624 18H31.152V6.544H32.624V18ZM34.6773 10.16H36.0853V11.248H36.1493C36.3733 10.864 36.7146 10.544 37.1733 10.288C37.6426 10.032 38.1279 9.904 38.6293 9.904C39.5893 9.904 40.3253 10.1813 40.8373 10.736C41.3599 11.28 41.6213 12.0587 41.6213 13.072V18H40.1493V13.168C40.1173 11.888 39.4719 11.248 38.2133 11.248C37.6266 11.248 37.1359 11.488 36.7413 11.968C36.3466 12.4373 36.1493 13.0027 36.1493 13.664V18H34.6773V10.16ZM49.271 15.824C49.271 16.5067 48.9723 17.0827 48.375 17.552C47.7777 18.0213 47.0257 18.256 46.119 18.256C45.3297 18.256 44.6363 18.0533 44.039 17.648C43.4417 17.232 43.015 16.688 42.759 16.016L44.071 15.456C44.263 15.9253 44.5403 16.2933 44.903 16.56C45.2763 16.816 45.6817 16.944 46.119 16.944C46.5883 16.944 46.9777 16.8427 47.287 16.64C47.607 16.4373 47.767 16.1973 47.767 15.92C47.767 15.4187 47.383 15.0507 46.615 14.816L45.271 14.48C43.7457 14.096 42.983 13.36 42.983 12.272C42.983 11.5573 43.271 10.9867 43.847 10.56C44.4337 10.1227 45.1803 9.904 46.087 9.904C46.7803 9.904 47.4043 10.0693 47.959 10.4C48.5243 10.7307 48.919 11.1733 49.143 11.728L47.831 12.272C47.6817 11.9413 47.4363 11.6853 47.095 11.504C46.7643 11.312 46.391 11.216 45.975 11.216C45.591 11.216 45.2443 11.312 44.935 11.504C44.6363 11.696 44.487 11.9307 44.487 12.208C44.487 12.656 44.9083 12.976 45.751 13.168L46.935 13.472C48.4923 13.856 49.271 14.64 49.271 15.824ZM53.5781 18.128C52.9381 18.128 52.4048 17.9307 51.9781 17.536C51.5621 17.1413 51.3488 16.592 51.3381 15.888V11.504H49.9621V10.16H51.3381V7.76H52.8101V10.16H54.7301V11.504H52.8101V15.408C52.8101 15.9307 52.9115 16.288 53.1141 16.48C53.3168 16.6613 53.5461 16.752 53.8021 16.752C53.9195 16.752 54.0315 16.7413 54.1381 16.72C54.2555 16.688 54.3621 16.6507 54.4581 16.608L54.9221 17.92C54.5381 18.0587 54.0901 18.128 53.5781 18.128ZM57.0461 15.6C57.0461 15.984 57.2061 16.304 57.5261 16.56C57.8568 16.816 58.2408 16.944 58.6781 16.944C59.2968 16.944 59.8461 16.7147 60.3261 16.256C60.8168 15.7973 61.0621 15.2587 61.0621 14.64C60.6035 14.2773 59.9635 14.096 59.1421 14.096C58.5448 14.096 58.0435 14.24 57.6381 14.528C57.2435 14.816 57.0461 15.1733 57.0461 15.6ZM58.9501 9.904C60.0381 9.904 60.8968 10.1973 61.5261 10.784C62.1555 11.36 62.4701 12.1547 62.4701 13.168V18H61.0621V16.912H60.9981C60.3901 17.808 59.5795 18.256 58.5661 18.256C57.7021 18.256 56.9768 18 56.3901 17.488C55.8141 16.976 55.5261 16.336 55.5261 15.568C55.5261 14.7573 55.8301 14.112 56.4381 13.632C57.0568 13.152 57.8781 12.912 58.9021 12.912C59.7768 12.912 60.4968 13.072 61.0621 13.392V13.056C61.0621 12.544 60.8595 12.112 60.4541 11.76C60.0488 11.3973 59.5741 11.216 59.0301 11.216C58.2088 11.216 57.5581 11.5627 57.0781 12.256L55.7821 11.44C56.4968 10.416 57.5528 9.904 58.9501 9.904ZM67.5723 16.912C68.2976 16.912 68.8896 16.6507 69.3483 16.128C69.8283 15.6053 70.0683 14.9227 70.0683 14.08C70.0683 13.2587 69.8283 12.5813 69.3483 12.048C68.8789 11.5147 68.2869 11.248 67.5723 11.248C66.8683 11.248 66.2763 11.5147 65.7963 12.048C65.3163 12.5813 65.0763 13.2587 65.0763 14.08C65.0763 14.912 65.3163 15.5893 65.7963 16.112C66.2763 16.6453 66.8683 16.912 67.5723 16.912ZM67.5243 21.712C67.0869 21.712 66.6763 21.6533 66.2923 21.536C65.9083 21.4293 65.5563 21.2747 65.2363 21.072C64.9269 20.8693 64.6603 20.6293 64.4363 20.352C64.2123 20.0747 64.0416 19.7653 63.9243 19.424L65.3163 18.848C65.4763 19.3067 65.7536 19.6747 66.1483 19.952C66.5429 20.2293 67.0016 20.368 67.5243 20.368C68.3243 20.368 68.9483 20.128 69.3963 19.648C69.8443 19.168 70.0683 18.5067 70.0683 17.664V16.912H70.0043C69.7269 17.328 69.3483 17.6587 68.8683 17.904C68.3989 18.1387 67.8869 18.256 67.3323 18.256C66.3083 18.256 65.4283 17.856 64.6923 17.056C63.9669 16.2347 63.6043 15.2427 63.6043 14.08C63.6043 12.9173 63.9669 11.9307 64.6923 11.12C65.4283 10.3093 66.3083 9.904 67.3323 9.904C67.8869 9.904 68.3989 10.0267 68.8683 10.272C69.3483 10.5067 69.7269 10.832 70.0043 11.248H70.0683V10.16H71.4763V17.664C71.4763 18.9227 71.1189 19.9093 70.4043 20.624C69.6789 21.3493 68.7189 21.712 67.5243 21.712ZM74.743 18H73.271V10.16H74.679V11.44H74.743C74.8923 11.024 75.1963 10.672 75.655 10.384C76.1243 10.0853 76.583 9.936 77.031 9.936C77.4577 9.936 77.8203 10 78.119 10.128L77.671 11.552C77.4897 11.4773 77.2017 11.44 76.807 11.44C76.2523 11.44 75.767 11.664 75.351 12.112C74.9457 12.56 74.743 13.0827 74.743 13.68V18ZM79.843 15.6C79.843 15.984 80.003 16.304 80.323 16.56C80.6537 16.816 81.0377 16.944 81.475 16.944C82.0937 16.944 82.643 16.7147 83.123 16.256C83.6137 15.7973 83.859 15.2587 83.859 14.64C83.4003 14.2773 82.7603 14.096 81.939 14.096C81.3417 14.096 80.8403 14.24 80.435 14.528C80.0403 14.816 79.843 15.1733 79.843 15.6ZM81.747 9.904C82.835 9.904 83.6937 10.1973 84.323 10.784C84.9523 11.36 85.267 12.1547 85.267 13.168V18H83.859V16.912H83.795C83.187 17.808 82.3763 18.256 81.363 18.256C80.499 18.256 79.7737 18 79.187 17.488C78.611 16.976 78.323 16.336 78.323 15.568C78.323 14.7573 78.627 14.112 79.235 13.632C79.8537 13.152 80.675 12.912 81.699 12.912C82.5737 12.912 83.2937 13.072 83.859 13.392V13.056C83.859 12.544 83.6563 12.112 83.251 11.76C82.8457 11.3973 82.371 11.216 81.827 11.216C81.0057 11.216 80.355 11.5627 79.875 12.256L78.579 11.44C79.2937 10.416 80.3497 9.904 81.747 9.904ZM88.3993 18H86.9273V10.16H88.3353V11.248H88.3993C88.6233 10.864 88.9646 10.544 89.4233 10.288C89.8926 10.032 90.3566 9.904 90.8153 9.904C91.3913 9.904 91.8979 10.0373 92.3353 10.304C92.7726 10.5707 93.0926 10.9387 93.2953 11.408C93.9459 10.4053 94.8473 9.904 95.9993 9.904C96.9059 9.904 97.6046 10.1813 98.0953 10.736C98.5859 11.2907 98.8313 12.08 98.8313 13.104V18H97.3593V13.328C97.3593 12.592 97.2259 12.064 96.9593 11.744C96.6926 11.4133 96.2446 11.248 95.6153 11.248C95.0499 11.248 94.5753 11.488 94.1913 11.968C93.8073 12.448 93.6153 13.0133 93.6153 13.664V18H92.1433V13.328C92.1433 12.592 92.0099 12.064 91.7433 11.744C91.4766 11.4133 91.0286 11.248 90.3993 11.248C89.8339 11.248 89.3593 11.488 88.9753 11.968C88.5913 12.448 88.3993 13.0133 88.3993 13.664V18Z" fill="white"/>
</g>
<defs>
<clipPath id="clip0_703_959">
<rect width="100" height="24" fill="white"/>
</clipPath>
<clipPath id="clip1_703_959">
<rect width="22" height="24" fill="white"/>
</clipPath>
</defs>
</svg>
