<svg width="95" height="24" viewBox="0 0 95 24" fill="none" xmlns="http://www.w3.org/2000/svg">
<g clip-path="url(#clip0_703_951)">
<g clip-path="url(#clip1_703_951)">
<path d="M11 0.375C4.92339 0.375 0 5.57812 0 12C0 18.4219 4.92339 23.625 11 23.625C17.0766 23.625 22 18.4219 22 12C22 5.57812 17.0766 0.375 11 0.375ZM16.4024 8.33906L14.5972 17.3297C14.4641 17.9672 14.1048 18.1219 13.6036 17.8219L10.8536 15.6797L9.52742 17.0297C9.38105 17.1844 9.25686 17.3156 8.97298 17.3156L9.16815 14.3578L14.2645 9.49219C14.4863 9.28594 14.2157 9.16875 13.923 9.375L7.6246 13.5656L4.91008 12.6703C4.32016 12.4734 4.30685 12.0469 5.03427 11.7469L15.6395 7.425C16.1319 7.2375 16.5621 7.55156 16.4024 8.33906Z" fill="white"/>
</g>
<path d="M35.056 7.952V18H33.584V7.952H30.384V6.544H38.256V7.952H35.056ZM41.7754 18.256C40.6234 18.256 39.674 17.8613 38.9274 17.072C38.1807 16.2827 37.8074 15.2853 37.8074 14.08C37.8074 12.8853 38.17 11.8933 38.8954 11.104C39.6207 10.304 40.5487 9.904 41.6794 9.904C42.842 9.904 43.7647 10.2827 44.4474 11.04C45.1407 11.7867 45.4874 12.8373 45.4874 14.192L45.4714 14.352H39.3114C39.3327 15.12 39.5887 15.7387 40.0794 16.208C40.57 16.6773 41.1567 16.912 41.8394 16.912C42.778 16.912 43.514 16.4427 44.0474 15.504L45.3594 16.144C45.0074 16.8053 44.5167 17.3227 43.8874 17.696C43.2687 18.0693 42.5647 18.256 41.7754 18.256ZM39.4234 13.136H43.9194C43.8767 12.592 43.6527 12.144 43.2474 11.792C42.8527 11.4293 42.3194 11.248 41.6474 11.248C41.0927 11.248 40.6127 11.4187 40.2074 11.76C39.8127 12.1013 39.5514 12.56 39.4234 13.136ZM48.3055 6.544V18H46.8335V6.544H48.3055ZM53.541 18.256C52.389 18.256 51.4397 17.8613 50.693 17.072C49.9463 16.2827 49.573 15.2853 49.573 14.08C49.573 12.8853 49.9357 11.8933 50.661 11.104C51.3863 10.304 52.3143 9.904 53.445 9.904C54.6077 9.904 55.5303 10.2827 56.213 11.04C56.9063 11.7867 57.253 12.8373 57.253 14.192L57.237 14.352H51.077C51.0983 15.12 51.3543 15.7387 51.845 16.208C52.3357 16.6773 52.9223 16.912 53.605 16.912C54.5437 16.912 55.2797 16.4427 55.813 15.504L57.125 16.144C56.773 16.8053 56.2823 17.3227 55.653 17.696C55.0343 18.0693 54.3303 18.256 53.541 18.256ZM51.189 13.136H55.685C55.6423 12.592 55.4183 12.144 55.013 11.792C54.6183 11.4293 54.085 11.248 53.413 11.248C52.8583 11.248 52.3783 11.4187 51.973 11.76C51.5783 12.1013 51.317 12.56 51.189 13.136ZM62.1973 16.912C62.9226 16.912 63.5146 16.6507 63.9733 16.128C64.4533 15.6053 64.6933 14.9227 64.6933 14.08C64.6933 13.2587 64.4533 12.5813 63.9733 12.048C63.5039 11.5147 62.9119 11.248 62.1973 11.248C61.4933 11.248 60.9013 11.5147 60.4213 12.048C59.9413 12.5813 59.7013 13.2587 59.7013 14.08C59.7013 14.912 59.9413 15.5893 60.4213 16.112C60.9013 16.6453 61.4933 16.912 62.1973 16.912ZM62.1493 21.712C61.7119 21.712 61.3013 21.6533 60.9173 21.536C60.5333 21.4293 60.1813 21.2747 59.8613 21.072C59.5519 20.8693 59.2853 20.6293 59.0613 20.352C58.8373 20.0747 58.6666 19.7653 58.5493 19.424L59.9413 18.848C60.1013 19.3067 60.3786 19.6747 60.7733 19.952C61.1679 20.2293 61.6266 20.368 62.1493 20.368C62.9493 20.368 63.5733 20.128 64.0213 19.648C64.4693 19.168 64.6933 18.5067 64.6933 17.664V16.912H64.6293C64.3519 17.328 63.9733 17.6587 63.4933 17.904C63.0239 18.1387 62.5119 18.256 61.9573 18.256C60.9333 18.256 60.0533 17.856 59.3173 17.056C58.5919 16.2347 58.2293 15.2427 58.2293 14.08C58.2293 12.9173 58.5919 11.9307 59.3173 11.12C60.0533 10.3093 60.9333 9.904 61.9573 9.904C62.5119 9.904 63.0239 10.0267 63.4933 10.272C63.9733 10.5067 64.3519 10.832 64.6293 11.248H64.6933V10.16H66.1013V17.664C66.1013 18.9227 65.7439 19.9093 65.0293 20.624C64.3039 21.3493 63.3439 21.712 62.1493 21.712ZM69.368 18H67.896V10.16H69.304V11.44H69.368C69.5173 11.024 69.8213 10.672 70.28 10.384C70.7493 10.0853 71.208 9.936 71.656 9.936C72.0827 9.936 72.4453 10 72.744 10.128L72.296 11.552C72.1147 11.4773 71.8267 11.44 71.432 11.44C70.8773 11.44 70.392 11.664 69.976 12.112C69.5707 12.56 69.368 13.0827 69.368 13.68V18ZM74.468 15.6C74.468 15.984 74.628 16.304 74.948 16.56C75.2787 16.816 75.6627 16.944 76.1 16.944C76.7187 16.944 77.268 16.7147 77.748 16.256C78.2387 15.7973 78.484 15.2587 78.484 14.64C78.0253 14.2773 77.3853 14.096 76.564 14.096C75.9667 14.096 75.4653 14.24 75.06 14.528C74.6653 14.816 74.468 15.1733 74.468 15.6ZM76.372 9.904C77.46 9.904 78.3187 10.1973 78.948 10.784C79.5773 11.36 79.892 12.1547 79.892 13.168V18H78.484V16.912H78.42C77.812 17.808 77.0013 18.256 75.988 18.256C75.124 18.256 74.3987 18 73.812 17.488C73.236 16.976 72.948 16.336 72.948 15.568C72.948 14.7573 73.252 14.112 73.86 13.632C74.4787 13.152 75.3 12.912 76.324 12.912C77.1987 12.912 77.9187 13.072 78.484 13.392V13.056C78.484 12.544 78.2813 12.112 77.876 11.76C77.4707 11.3973 76.996 11.216 76.452 11.216C75.6307 11.216 74.98 11.5627 74.5 12.256L73.204 11.44C73.9187 10.416 74.9747 9.904 76.372 9.904ZM83.0243 18H81.5523V10.16H82.9603V11.248H83.0243C83.2483 10.864 83.5896 10.544 84.0483 10.288C84.5176 10.032 84.9816 9.904 85.4403 9.904C86.0163 9.904 86.5229 10.0373 86.9603 10.304C87.3976 10.5707 87.7176 10.9387 87.9203 11.408C88.5709 10.4053 89.4723 9.904 90.6243 9.904C91.5309 9.904 92.2296 10.1813 92.7203 10.736C93.2109 11.2907 93.4563 12.08 93.4563 13.104V18H91.9843V13.328C91.9843 12.592 91.8509 12.064 91.5843 11.744C91.3176 11.4133 90.8696 11.248 90.2403 11.248C89.6749 11.248 89.2003 11.488 88.8163 11.968C88.4323 12.448 88.2403 13.0133 88.2403 13.664V18H86.7683V13.328C86.7683 12.592 86.6349 12.064 86.3683 11.744C86.1016 11.4133 85.6536 11.248 85.0243 11.248C84.4589 11.248 83.9843 11.488 83.6003 11.968C83.2163 12.448 83.0243 13.0133 83.0243 13.664V18Z" fill="white"/>
</g>
<defs>
<clipPath id="clip0_703_951">
<rect width="95" height="24" fill="white"/>
</clipPath>
<clipPath id="clip1_703_951">
<rect width="22" height="24" fill="white"/>
</clipPath>
</defs>
</svg>
